HIERARCHY
ROOT Hip
{
	OFFSET 0 1.131 0.0052
	CHANNELS 6 Xposition Yposition Zposition Xrotation Yrotation Zrotation
	JOINT Abdomen
	{
		OFFSET 0 -0.047353 -0.05
		CHANNELS 3 Xrotation Zrotation Yrotation
		JOINT Chest
		{
			OFFSET 0 0.132153 0.007439
			CHANNELS 3 Xrotation Zrotation Yrotation
			JOINT Neck
			{
				OFFSET 0 0.3078 0.006161
				CHANNELS 3 Xrotation Zrotation Yrotation
				JOINT Head_comp
				{
					OFFSET 0 0.0884 0.013
					CHANNELS 3 Xrotation Yrotation Zrotation
					End Site
					{
						OFFSET -0 0.156 0.0624
					}
				}
			}
			JOINT Left_Collar
			{
				OFFSET 0.02282 0.250342 0.017193
				CHANNELS 2 Yrotation Zrotation
				JOINT Left_Shoulder
				{
					OFFSET 0.15421 0 0
					CHANNELS 3 Xrotation Yrotation Zrotation
					JOINT Left_Forearm
					{
						OFFSET 0.265212 0 0
						CHANNELS 2 Yrotation Xrotation
						JOINT Left_Hand
						{
							OFFSET 0.27571 0 0
							CHANNELS 2 Zrotation Yrotation
							JOINT L1ProxPhalanx
							{
								OFFSET 0.014142 0.001733 0.014142
								CHANNELS 3 Yrotation Zrotation Xrotation
								JOINT L1MidPhalanx
								{
									OFFSET 0.04 0 0
									CHANNELS 1 Zrotation
									JOINT L1DistPhalanx
									{
										OFFSET 0.035 0 0
										CHANNELS 1 Zrotation
										End Site
										{
											OFFSET 0.029 -0 -0
										}
									}
								}
							}
							JOINT L2ProxPhalanx
							{
								OFFSET 0.0821037 0.001578 0.0219996
								CHANNELS 2 Yrotation Zrotation
								JOINT L2MidPhalanx
								{
									OFFSET 0.04 0 0
									CHANNELS 1 Zrotation
									JOINT L2DistPhalanx
									{
										OFFSET 0.028 0 0
										CHANNELS 1 Zrotation
										End Site
										{
											OFFSET 0.02 -0 -0
										}
									}
								}
							}
							JOINT L3ProxPhalanx
							{
								OFFSET 0.083 0 0
								CHANNELS 2 Yrotation Zrotation
								JOINT L3MidPhalanx
								{
									OFFSET 0.053 0 0
									CHANNELS 1 Zrotation
									JOINT L3DistPhalanx
									{
										OFFSET 0.03 0 0
										CHANNELS 1 Zrotation
										End Site
										{
											OFFSET 0.023 -0 -0
										}
									}
								}
							}
							JOINT L4ProxPhalanx
							{
								OFFSET 0.077274 -0.000761 -0.0207055
								CHANNELS 2 Yrotation Zrotation
								JOINT L4MidPhalanx
								{
									OFFSET 0.05 0 0
									CHANNELS 1 Zrotation
									JOINT L4DistPhalanx
									{
										OFFSET 0.03 0 0
										CHANNELS 1 Zrotation
										End Site
										{
											OFFSET 0.023 -0 -0
										}
									}
								}
							}
							JOINT L5ProxPhalanx
							{
								OFFSET 0.0675499 -0.001644 -0.039
								CHANNELS 2 Yrotation Zrotation
								JOINT L5MidPhalanx
								{
									OFFSET 0.04 0 0
									CHANNELS 1 Zrotation
									JOINT L5DistPhalanx
									{
										OFFSET 0.021 0 0
										CHANNELS 1 Zrotation
										End Site
										{
											OFFSET 0.022 -0 -0
										}
									}
								}
							}
						}
					}
				}
			}
			JOINT Right_Collar
			{
				OFFSET -0.02282 0.250342 0.017193
				CHANNELS 2 Yrotation Zrotation
				JOINT Right_Shoulder
				{
					OFFSET -0.15421 0 0
					CHANNELS 3 Xrotation Yrotation Zrotation
					JOINT Right_Forearm
					{
						OFFSET -0.265212 0 0
						CHANNELS 2 Yrotation Xrotation
						JOINT Right_Hand
						{
							OFFSET -0.27571 3e-006 0
							CHANNELS 2 Zrotation Yrotation
							JOINT R1ProxPhalanx
							{
								OFFSET -0.014142 0.001733 0.014142
								CHANNELS 3 Yrotation Zrotation Xrotation
								JOINT R1MidPhalanx
								{
									OFFSET -0.04 0 0
									CHANNELS 1 Zrotation
									JOINT R1DistPhalanx
									{
										OFFSET -0.035 0 0
										CHANNELS 1 Zrotation
										End Site
										{
											OFFSET -0.029 -0 -0
										}
									}
								}
							}
							JOINT R2ProxPhalanx
							{
								OFFSET -0.0821037 0.001578 0.0219996
								CHANNELS 2 Yrotation Zrotation
								JOINT R2MidPhalanx
								{
									OFFSET -0.04 0 0
									CHANNELS 1 Zrotation
									JOINT R2DistPhalanx
									{
										OFFSET -0.028 0 0
										CHANNELS 1 Zrotation
										End Site
										{
											OFFSET -0.02 -0 -0
										}
									}
								}
							}
							JOINT R3ProxPhalanx
							{
								OFFSET -0.083 0 0
								CHANNELS 2 Yrotation Zrotation
								JOINT R3MidPhalanx
								{
									OFFSET -0.053 0 0
									CHANNELS 1 Zrotation
									JOINT R3DistPhalanx
									{
										OFFSET -0.03 0 0
										CHANNELS 1 Zrotation
										End Site
										{
											OFFSET -0.023 -0 -0
										}
									}
								}
							}
							JOINT R4ProxPhalanx
							{
								OFFSET -0.077274 -0.000761 -0.0207055
								CHANNELS 2 Yrotation Zrotation
								JOINT R4MidPhalanx
								{
									OFFSET -0.05 0 0
									CHANNELS 1 Zrotation
									JOINT R4DistPhalanx
									{
										OFFSET -0.03 0 0
										CHANNELS 1 Zrotation
										End Site
										{
											OFFSET -0.023 -0 -0
										}
									}
								}
							}
							JOINT R5ProxPhalanx
							{
								OFFSET -0.0675499 -0.001644 -0.039
								CHANNELS 2 Yrotation Zrotation
								JOINT R5MidPhalanx
								{
									OFFSET -0.04 0 0
									CHANNELS 1 Zrotation
									JOINT R5DistPhalanx
									{
										OFFSET -0.021 0 0
										CHANNELS 1 Zrotation
										End Site
										{
											OFFSET -0.022 -0 -0
										}
									}
								}
							}
						}
					}
				}
			}
		}
	}
	JOINT Left_Thigh
	{
		OFFSET 0.1118 -0.1612 -0.0442
		CHANNELS 3 Xrotation Zrotation Yrotation
		JOINT Left_Shin
		{
			OFFSET 0 -0.477856 0
			CHANNELS 1 Xrotation
			JOINT Left_Foot
			{
				OFFSET 0 -0.431952 0
				CHANNELS 2 Xrotation Zrotation
				JOINT Left_Toe
				{
					OFFSET 0 -0.0442 0.119
					CHANNELS 1 Xrotation
					End Site
					{
						OFFSET -0 -0 0.07
					}
				}
			}
		}
	}
	JOINT Right_Thigh
	{
		OFFSET -0.1118 -0.1612 -0.0442
		CHANNELS 3 Xrotation Zrotation Yrotation
		JOINT Right_Shin
		{
			OFFSET 0 -0.477856 0
			CHANNELS 1 Xrotation
			JOINT Right_Foot
			{
				OFFSET 0 -0.431952 0
				CHANNELS 2 Xrotation Zrotation
				JOINT Right_Toe
				{
					OFFSET 0 -0.0442 0.119
					CHANNELS 1 Xrotation
					End Site
					{
						OFFSET -0 -0 0.07
					}
				}
			}
		}
	}
}
MOTION
Frames: 15
Frame Time: 0.009975
-0.0997582 -0.0601053 0.0468143 1.04609e-012 4.31614e-008 -5.10959e-006 0 -0 0 0 -0 0 0 -0 0 -0.712643 0.286596 2.14031e-011 6.42618 -35.9305 15.8676 -11.0818 -28.4188 -99.9058 -1.94347 -4.41768 -2.19088 -27.5605 -21.5864 106.421 -7.48048 -7.22872 0.359187 -7.00922 -0.766388 -1.05378 4.72541 -4.46271 -1.39298 -3.41729 8.71841 0.0688695 -13.7112 -8.22532 12.9011 1.57409 -20.5968 -30.2417 1.52902 21.4455 -2.28713 27.8001 39.1847 70.3016 3.19173 3.61356 -9.3209 55.0405 34.6694 80.8972 19.2229 14.659 10.341 22.5156 31.9834 18.8991 6.91472 32.8335 28.9173 23.7475 5.53498 36.7171 36.6046 8.74705 -0.566661 31.2783 80.5038 -47.3245 0.480757 -0.758356 -0.00636338 0.0240216 -0.504737 0.758388 0 0.492163 -0.758355 -0.00651435 1.70755e-006 -0.492122 0.758388 0 
-0.0996652 -0.0601087 0.0470601 1.98129e-012 4.46294e-008 -5.10958e-006 0 -0 0 0 -0 0 0 -0 0 -0.712668 0.286391 2.61838e-012 6.42618 -35.9305 15.8676 -11.0818 -28.4188 -99.9058 -1.94347 -4.41768 -2.19088 -27.5605 -21.5864 106.421 -7.48048 -7.22872 0.359187 -7.00922 -0.766388 -1.05378 4.72541 -4.46271 -1.39298 -3.41729 8.71841 0.0688695 -13.7112 -8.22532 12.9011 1.57409 -20.5968 -30.2417 1.08903 21.5474 -1.23692 27.4656 38.164 73.1824 2.85691 0.974791 -8.82166 57.0384 36.6219 87.4665 16.7299 12.5182 5.9317 16.6152 19.3984 12.265 3.79857 19.2601 18.8219 16.1511 2.68792 19.1987 25.4311 6.9203 -6.55078 16.5118 74.8096 -46.0856 0.496239 -0.764217 -0.00661913 0.0240216 -0.520217 0.764251 0 0.507645 -0.764215 -0.00677126 1.70755e-006 -0.507602 0.764251 0 
-0.0995379 -0.0601125 0.0472981 -4.32396e-013 4.59285e-008 -5.10958e-006 0 -0 0 0 -0 0 0 -0 0 -0.712695 0.286105 3.47475e-011 6.42618 -35.9305 15.8676 -11.0818 -28.4188 -99.9058 -1.94347 -4.41768 -2.19088 -27.5605 -21.5864 106.421 -7.48048 -7.22872 0.359187 -7.00922 -0.766388 -1.05378 4.72541 -4.46271 -1.39298 -3.41729 8.71841 0.0688695 -13.7112 -8.22532 12.9011 1.57409 -20.5968 -30.2417 0.656969 21.6489 -0.415337 26.9374 37.1955 76.0666 2.5653 -1.63892 -8.18773 47.9678 36.129 98.2731 10.3094 8.40519 -0.516656 8.48167 5.27002 7.24298 -1.45549 3.46477 7.17203 9.8337 -2.66973 -0.155887 13.1435 6.42883 -13.678 -1.38441 42.2567 -19.9994 0.511226 -0.772233 -0.00689062 0.0240216 -0.535201 0.772269 0 0.522631 -0.772231 -0.00704433 2.41484e-006 -0.522586 0.772268 0 
-0.0994065 -0.0601167 0.0475565 -6.68093e-013 4.73102e-008 -5.10958e-006 0 -0 0 0 -0 0 0 -0 0 -0.712726 0.285675 2.17393e-011 6.42618 -35.9305 15.8676 -11.0818 -28.4188 -99.9058 -1.94347 -4.41768 -2.19088 -27.5605 -21.5864 106.421 -7.48048 -7.22872 0.359187 -7.00922 -0.766388 -1.05378 4.72541 -4.46271 -1.39298 -3.41729 8.71841 0.0688695 -13.7112 -8.22532 12.9011 1.57409 -20.5968 -30.2417 0.161881 21.7034 0.524285 26.5435 36.2585 78.9024 2.15561 -3.87348 -7.46161 38.9951 30.821 98.8377 5.94969 5.22536 -1.47776 5.44953 4.82577 8.2324 -2.09001 0.328174 5.60912 9.83756 -3.05138 -0.362152 7.4011 7.905 -12.6454 -0.68207 8.07082 6.20485 0.527501 -0.780511 -0.00718619 0.0240216 -0.551474 0.780549 0 0.538905 -0.780509 -0.00734154 2.83165e-006 -0.538858 0.780549 0 
-0.0992737 -0.0601211 0.047824 1.77852e-012 4.88414e-008 -5.10957e-006 0 -0 0 0 -0 0 0 -0 0 -0.712753 0.285221 3.18714e-011 6.42618 -35.9305 15.8676 -11.0818 -28.4188 -99.9058 -1.94347 -4.41768 -2.19088 -27.5605 -21.5864 106.421 -7.48048 -7.22872 0.359187 -7.00922 -0.766388 -1.05378 4.72541 -4.46271 -1.39298 -3.41729 8.71841 0.0688695 -13.7112 -8.22532 12.9011 1.57409 -20.5968 -30.2417 -0.100549 21.4094 1.48986 25.8081 35.8578 81.5872 1.90632 -4.8007 -6.96705 38.4706 29.975 97.8334 5.87113 5.43733 -1.41985 5.06965 5.30592 8.22448 -2.13642 0.21874 6.39432 9.02726 -3.21546 -0.0133076 7.26489 7.88947 -12.9397 -0.313163 8.0684 6.17062 0.544355 -0.788872 -0.00749528 0.0240216 -0.568325 0.788913 0 0.55576 -0.788871 -0.0076523 2.28365e-006 -0.55571 0.788913 0 
-0.0991555 -0.0601256 0.0481181 -1.37692e-012 5.03229e-008 -5.10957e-006 0 -0 0 0 -0 0 0 -0 0 -0.712782 0.284765 2.30793e-011 6.42618 -35.9305 15.8676 -11.0818 -28.4188 -99.9058 -1.94347 -4.41768 -2.19088 -27.5605 -21.5864 106.421 -7.48048 -7.22872 0.359187 -7.00922 -0.766388 -1.05378 4.72541 -4.46271 -1.39298 -3.41729 8.71841 0.0688695 -13.7112 -8.22532 12.9011 1.57409 -20.5968 -30.2417 -0.0973288 20.779 2.62355 24.728 36.1318 83.8341 1.84526 -4.64695 -6.74391 38.4587 29.9309 97.2925 6.3276 5.95297 -1.09407 5.36427 5.83745 8.4802 -2.08855 0.716611 6.9819 9.45522 -3.33683 0.675075 7.82379 8.2452 -12.8252 0.292981 8.67534 6.70506 0.562876 -0.796316 -0.00782335 0.0240216 -0.586843 0.79636 0 0.574282 -0.796315 -0.00798187 1.70755e-006 -0.574228 0.79636 0 
-0.0990718 -0.0601301 0.0484436 -1.47912e-012 5.21631e-008 -5.10956e-006 0 -0 0 0 -0 0 0 -0 0 -0.712817 0.284491 1.84183e-011 6.42618 -35.9305 15.8676 -11.0818 -28.4188 -99.9058 -1.94347 -4.41768 -2.19088 -27.5605 -21.5864 106.421 -7.48048 -7.22872 0.359187 -7.00922 -0.766388 -1.05378 4.72541 -4.46271 -1.39298 -3.41729 8.71841 0.0688695 -13.7112 -8.22532 12.9011 1.57409 -20.5968 -30.2417 -0.0942342 20.2068 3.87497 23.6772 36.5293 85.5827 1.78659 -4.4992 -6.52949 38.4468 29.8869 96.7516 6.78406 6.4686 -0.768284 5.65888 6.36898 8.73593 -2.04067 1.21448 7.56949 9.88318 -3.45821 1.36346 8.38269 8.60093 -12.7107 0.899124 9.28228 7.23949 0.583381 -0.801591 -0.00816203 0.0240216 -0.607346 0.801638 0 0.594787 -0.80159 -0.0083216 2.41484e-006 -0.594732 0.801638 0 
-0.0989995 -0.0601345 0.0487618 3.80892e-014 5.3989e-008 -5.10954e-006 0 -0 0 0 -0 0 0 -0 0 -0.712853 0.284276 1.5618e-011 6.42618 -35.9305 15.8676 -11.0818 -28.4188 -99.9058 -1.94347 -4.41768 -2.19088 -27.5605 -21.5864 106.421 -7.48048 -7.22872 0.359187 -7.00922 -0.766388 -1.05378 4.72541 -4.46271 -1.39298 -3.41729 8.71841 0.0688695 -13.7112 -8.22532 12.9011 1.57409 -20.5968 -30.2417 -0.0912289 19.6635 5.1073 22.7236 36.9796 87.0021 1.72961 -4.35571 -6.32125 38.4349 29.8428 96.2108 7.24053 6.98424 -0.442499 5.9535 6.9005 8.99165 -1.9928 1.71235 8.15707 10.3111 -3.57959 2.05184 8.94159 8.95665 -12.5962 1.50527 9.88922 7.77393 0.603424 -0.806141 -0.00849034 0.0240216 -0.627386 0.806191 0 0.614829 -0.806139 -0.0086508 2.41484e-006 -0.614771 0.806191 0 
-0.0989361 -0.0601387 0.0490685 -1.10211e-012 5.57443e-008 -5.10953e-006 0 -0 0 0 -0 0 0 -0 0 -0.712888 0.284087 1.31493e-011 6.42618 -35.9305 15.8676 -11.0818 -28.4188 -99.9058 -1.94347 -4.41768 -2.19088 -27.5605 -21.5864 106.421 -7.48048 -7.22872 0.359187 -7.00922 -0.766388 -1.05378 4.72541 -4.46271 -1.39298 -3.41729 8.71841 0.0688695 -13.7112 -8.22532 12.9011 1.57409 -20.5968 -30.2417 -0.0882926 19.139 6.30912 21.8525 37.4762 88.1999 1.67394 -4.21551 -6.11779 38.423 29.7987 95.6699 7.697 7.49988 -0.116714 6.24812 7.43203 9.24737 -1.94492 2.21022 8.74465 10.7391 -3.70096 2.74022 9.50049 9.31238 -12.4818 2.11141 10.4962 8.30836 0.622739 -0.810135 -0.0088055 0.0240216 -0.646698 0.810188 0 0.634144 -0.810134 -0.00896676 2.29489e-006 -0.634083 0.810188 0 
-0.0988803 -0.0601428 0.0493655 -1.31314e-012 5.74402e-008 -5.10951e-006 0 -0 0 0 -0 0 0 -0 0 -0.712922 0.283922 1.11725e-011 6.42618 -35.9305 15.8676 -11.0818 -28.4188 -99.9058 -1.94347 -4.41768 -2.19088 -27.5605 -21.5864 106.421 -7.48048 -7.22872 0.359187 -7.00922 -0.766388 -1.05378 4.72541 -4.46271 -1.39298 -3.41729 8.71841 0.0688695 -13.7112 -8.22532 12.9011 1.57409 -20.5968 -30.2417 -0.0854123 18.6284 7.48157 21.0508 38.0126 89.2309 1.61934 -4.078 -5.91822 38.411 29.7546 95.129 8.15346 8.01552 0.209071 6.54274 7.96356 9.5031 -1.89704 2.70809 9.33224 11.1671 -3.82234 3.4286 10.0594 9.6681 -12.3673 2.71755 11.1031 8.8428 0.641447 -0.813653 -0.0091094 0.0240216 -0.665404 0.813709 0 0.652853 -0.813651 -0.00927137 1.70755e-006 -0.652789 0.813709 0 
-0.098831 -0.0601469 0.0496545 -9.78914e-013 5.90871e-008 -5.1095e-006 0 -0 0 0 -0 0 0 -0 0 -0.712955 0.283777 9.54729e-012 6.42618 -35.9305 15.8676 -11.0818 -28.4188 -99.9058 -1.94347 -4.41768 -2.19088 -27.5605 -21.5864 106.421 -7.48048 -7.22872 0.359187 -7.00922 -0.766388 -1.05378 4.72541 -4.46271 -1.39298 -3.41729 8.71841 0.0688695 -13.7112 -8.22532 12.9011 1.57409 -20.5968 -30.2417 -0.0825796 18.1288 8.62661 20.3093 38.5843 90.1264 1.56563 -3.94275 -5.72194 38.3991 29.7105 94.5882 8.60993 8.53115 0.534856 6.83736 8.49508 9.75882 -1.84917 3.20596 9.91982 11.595 -3.94371 4.11698 10.6183 10.0238 -12.2528 3.3237 11.71 9.37724 0.65965 -0.816755 -0.00940362 0.0240216 -0.683605 0.816814 0 0.671056 -0.816753 -0.0095662 1.70755e-006 -0.67099 0.816814 0 
-0.0987877 -0.0601508 0.0499366 -2.88911e-013 6.06928e-008 -5.10948e-006 0 -0 0 0 -0 0 0 -0 0 -0.712987 0.283651 8.16661e-012 6.42618 -35.9305 15.8676 -11.0818 -28.4188 -99.9058 -1.94347 -4.41768 -2.19088 -27.5605 -21.5864 106.421 -7.48048 -7.22872 0.359187 -7.00922 -0.766388 -1.05378 4.72541 -4.46271 -1.39298 -3.41729 8.71841 0.0688695 -13.7112 -8.22532 12.9011 1.57409 -20.5968 -30.2417 -0.0797883 17.6386 9.74568 19.6214 39.1879 90.9068 1.51271 -3.80948 -5.52853 38.3872 29.6665 94.0473 9.0664 9.04679 0.860641 7.13198 9.02661 10.0145 -1.80129 3.70384 10.5074 12.023 -4.06509 4.80536 11.1772 10.3796 -12.1383 3.92984 12.317 9.91167 0.677419 -0.819485 -0.00968921 0.0240216 -0.701371 0.819547 0 0.688824 -0.819483 -0.00985233 2.23587e-006 -0.688756 0.819547 0 
-0.0987497 -0.0601547 0.0502126 6.85154e-013 6.22623e-008 -5.10947e-006 0 -0 0 0 -0 0 0 -0 0 -0.713018 0.28354 6.95566e-012 6.42618 -35.9305 15.8676 -11.0818 -28.4188 -99.9058 -1.94347 -4.41768 -2.19088 -27.5605 -21.5864 106.421 -7.48048 -7.22872 0.359187 -7.00922 -0.766388 -1.05378 4.72541 -4.46271 -1.39298 -3.41729 8.71841 0.0688695 -13.7112 -8.22532 12.9011 1.57409 -20.5968 -30.2417 -0.077034 17.1564 10.8395 18.9822 39.8209 91.5855 1.46049 -3.67797 -5.33768 38.3753 29.6224 93.5065 9.52286 9.56243 1.18643 7.4266 9.55814 10.2703 -1.75342 4.20171 11.095 12.4509 -4.18647 5.49375 11.7361 10.7353 -12.0238 4.53598 12.9239 10.4461 0.694803 -0.821875 -0.00996684 0.0240216 -0.718753 0.82194 0 0.706208 -0.821873 -0.0101304 2.30613e-006 -0.706137 0.82194 0 
-0.0987168 -0.0601586 0.050483 -7.24856e-013 6.3799e-008 -5.10945e-006 0 -0 0 0 -0 0 0 -0 0 -0.713049 0.283444 5.86715e-012 6.42618 -35.9305 15.8676 -11.0818 -28.4188 -99.9058 -1.94347 -4.41768 -2.19088 -27.5605 -21.5864 106.421 -7.48048 -7.22872 0.359187 -7.00922 -0.766388 -1.05378 4.72541 -4.46271 -1.39298 -3.41729 8.71841 0.0688695 -13.7112 -8.22532 12.9011 1.57409 -20.5968 -30.2417 -0.0743132 16.6813 11.9085 18.388 40.4812 92.1728 1.40891 -3.54807 -5.14916 38.3634 29.5783 92.9656 9.97933 10.0781 1.51221 7.72122 10.0897 10.526 -1.70554 4.69958 11.6826 12.8789 -4.30784 6.18213 12.295 11.091 -11.9093 5.14213 13.5309 10.9805 0.711836 -0.823948 -0.0102369 0.0240216 -0.735784 0.824017 0 0.723242 -0.823946 -0.010401 9.13538e-007 -0.723168 0.824017 0 
-0.0986886 -0.0601624 0.0507482 1.41498e-012 6.53058e-008 -5.10944e-006 0 -0 0 0 -0 0 0 -0 0 -0.713079 0.283362 4.87903e-012 6.42618 -35.9305 15.8676 -11.0818 -28.4188 -99.9058 -1.94347 -4.41768 -2.19088 -27.5605 -21.5864 106.421 -7.48048 -7.22872 0.359187 -7.00922 -0.766388 -1.05378 4.72541 -4.46271 -1.39298 -3.41729 8.71841 0.0688695 -13.7112 -8.22532 12.9011 1.57409 -20.5968 -30.2417 -0.0716234 16.2126 12.9526 17.8355 41.167 92.6762 1.35791 -3.41965 -4.96278 38.3514 29.5342 92.4247 10.4358 10.5937 1.838 8.01583 10.6212 10.7817 -1.65766 5.19745 12.2701 13.3069 -4.42922 6.87051 12.8539 11.4467 -11.7948 5.74827 14.1378 11.515 0.728543 -0.825723 -0.0104998 0.0240216 -0.752489 0.825795 0 0.739948 -0.825721 -0.0106641 1.30964e-006 -0.739872 0.825795 0 
